G04 ================== begin FILE IDENTIFICATION RECORD ==================*
G04 Layout Name:  LAYOUT.brd*
G04 Film Name:    BOTTOM*
G04 File Format:  Gerber RS274X*
G04 File Origin:  Cadence Allegro 16.6-2015-S059*
G04 Origin Date:  Sun Dec 04 21:38:57 2022*
G04 *
G04 Layer:  ETCH/BOTTOM*
G04 Layer:  PIN/BOTTOM*
G04 Layer:  VIA CLASS/BOTTOM*
G04 *
G04 Offset:    (0.00 0.00)*
G04 Mirror:    No*
G04 Mode:      Positive*
G04 Rotation:  0*
G04 FullContactRelief:  No*
G04 UndefLineWidth:     0.00*
G04 ================== end FILE IDENTIFICATION RECORD ====================*
%FSLAX25Y25*MOIN*%
%IR0*IPPOS*OFA0.00000B0.00000*MIA0B0*SFA1.00000B1.00000*%
%ADD10C,.03*%
%ADD11C,.018*%
G75*
%LPD*%
G75*
G54D10*
X32500Y95000D03*
X60000Y20000D03*
X55000Y72500D03*
X37500Y107500D03*
X80000Y27500D03*
X70000Y52500D03*
Y67500D03*
X65000Y107500D03*
X95000Y45000D03*
X117500Y47500D03*
X120000Y85000D03*
X105000Y142500D03*
X130000Y47500D03*
X128750Y86750D03*
X148500Y87000D03*
X135000Y107500D03*
X145000Y135000D03*
G54D11*
G01X55000Y72500D02*
Y25000D01*
X60000Y20000D01*
G01Y102500D02*
Y70000D01*
X85000Y45000D01*
X95000D01*
G01X60000Y102500D02*
X52500Y95000D01*
X32500D01*
G01X60000Y102500D02*
X65000Y107500D01*
G01X105000Y142500D02*
X47500D01*
X37500Y132500D01*
Y107500D01*
G01X120000Y85000D02*
X107500Y72500D01*
Y30000D01*
X105000Y27500D01*
X80000D01*
G01X130000Y47500D02*
X100000Y17500D01*
X69300D01*
X67454Y19346D01*
Y49954D01*
X70000Y52500D01*
G01Y67500D02*
X110000Y107500D01*
X135000D01*
G01X128750Y86750D02*
X117500Y75500D01*
Y47500D01*
G01X148500Y87000D02*
X142500Y93000D01*
Y132500D01*
X145000Y135000D01*
M02*
