G04 ================== begin FILE IDENTIFICATION RECORD ==================*
G04 Layout Name:  LAYOUT.brd*
G04 Film Name:    SSTOP*
G04 File Format:  Gerber RS274X*
G04 File Origin:  Cadence Allegro 16.6-2015-S059*
G04 Origin Date:  Wed Dec 07 19:30:45 2022*
G04 *
G04 Layer:  REF DES/SILKSCREEN_TOP*
G04 Layer:  PACKAGE GEOMETRY/SILKSCREEN_TOP*
G04 Layer:  BOARD GEOMETRY/SILKSCREEN_TOP*
G04 *
G04 Offset:    (0.00 0.00)*
G04 Mirror:    No*
G04 Mode:      Positive*
G04 Rotation:  0*
G04 FullContactRelief:  No*
G04 UndefLineWidth:     0.00*
G04 ================== end FILE IDENTIFICATION RECORD ====================*
%FSLAX25Y25*MOIN*%
%IR0*IPPOS*OFA0.00000B0.00000*MIA0B0*SFA1.00000B1.00000*%
%ADD10C,.006*%
%ADD11C,.007*%
%ADD12C,.00787*%
G75*
%LPD*%
G75*
G54D10*
G01X29700Y56250D02*
X13700D01*
G01D02*
Y63750D01*
G01X29700D02*
Y56250D01*
G01X32200Y36250D02*
X16200D01*
G01D02*
Y43750D01*
G01D02*
X32200D01*
G01X29700Y81250D02*
X13700D01*
G01D02*
Y88750D01*
G01D02*
X29700D01*
G01D02*
Y81250D01*
G01Y68750D02*
X13700D01*
G01D02*
Y76250D01*
G01D02*
X29700D01*
G01D02*
Y68750D01*
G01X13700Y63750D02*
X29700D01*
G01X31650Y113500D02*
X27350D01*
G01D02*
Y129300D01*
G01X29700Y96250D02*
X13700D01*
G01D02*
Y103750D01*
G01D02*
X29700D01*
G01D02*
Y96250D01*
G01X27350Y129300D02*
X37650D01*
G01X54700Y58750D02*
X38700D01*
G01D02*
Y66250D01*
G01X54700D02*
Y58750D01*
G01X32200Y43750D02*
Y36250D01*
G01X38700Y66250D02*
X54700D01*
G01X37650Y129300D02*
Y113500D01*
G01D02*
X33350D01*
G01D02*
X32500Y112650D01*
G01D02*
X31650Y113500D01*
G01X46250Y112800D02*
Y128800D01*
G01X53750D02*
Y112800D01*
G01D02*
X46250D01*
G01X57800Y101250D02*
X73800D01*
G01Y93750D02*
X57800D01*
G01D02*
Y101250D01*
G01X46250Y128800D02*
X53750D01*
G01X62800Y16250D02*
X78800D01*
G01D02*
Y8750D01*
G01D02*
X62800D01*
G01D02*
Y16250D01*
G01X87200Y56250D02*
X71200D01*
G01D02*
Y63750D01*
G01X87200D02*
Y56250D01*
G01X71200Y63750D02*
X87200D01*
G01X73800Y101250D02*
Y93750D01*
G01X90150Y146800D02*
Y131000D01*
G01D02*
X85850D01*
G01D02*
X85000Y130150D01*
G01D02*
X84150Y131000D01*
G01D02*
X79850D01*
G01D02*
Y146800D01*
G01D02*
X90150D01*
G01X109700Y13750D02*
X93700D01*
G01D02*
Y21250D01*
G01D02*
X109700D01*
G01D02*
Y13750D01*
G01X127200D02*
X111200D01*
G01D02*
Y21250D01*
G01D02*
X127200D01*
G01X107200Y48750D02*
X91200D01*
G01D02*
Y56250D01*
G01D02*
X107200D01*
G01D02*
Y48750D01*
G01X108800Y66250D02*
Y58750D01*
G01D02*
X92800D01*
G01D02*
Y66250D01*
G01X127200Y56250D02*
X111200D01*
G01D02*
Y63750D01*
G01X112800Y78750D02*
X128800D01*
G01Y71250D02*
X112800D01*
G01D02*
Y78750D01*
G01X92800Y66250D02*
X108800D01*
G01X111200Y63750D02*
X127200D01*
G01Y116250D02*
X111200D01*
G01D02*
Y123750D01*
G01X95300Y138750D02*
X111300D01*
G01D02*
Y131250D01*
G01D02*
X95300D01*
G01D02*
Y138750D01*
G01X111200Y123750D02*
X127200D01*
G01X148750Y42200D02*
Y26200D01*
G01D02*
X141250D01*
G01D02*
Y42200D01*
G01X135300Y18750D02*
X151300D01*
G01Y11250D02*
X135300D01*
G01D02*
Y18750D01*
G01X127200Y21250D02*
Y13750D01*
G01X141250Y42200D02*
X148750D01*
G01X127200Y63750D02*
Y56250D01*
G01X128800Y78750D02*
Y71250D01*
G01X127200Y123750D02*
Y116250D01*
G01X149700Y111250D02*
X133700D01*
G01D02*
Y118750D01*
G01D02*
X149700D01*
G01D02*
Y111250D01*
G01X147200Y121250D02*
X131200D01*
G01D02*
Y128750D01*
G01D02*
X147200D01*
G01D02*
Y121250D01*
G01X151300Y18750D02*
Y11250D01*
G54D11*
G01X14301Y30000D02*
G03I-4301J0D01*
G01X22333Y45500D02*
Y48500D01*
X23167D01*
X23433Y48350D01*
X23600Y48150D01*
X23667Y47750D01*
X23600Y47350D01*
X23400Y47100D01*
X23167Y46950D01*
X22333D01*
G01X23167D02*
X23667Y45500D01*
G01X25600D02*
Y48500D01*
X25200Y47900D01*
G01Y45500D02*
X26000D01*
G01X28200Y48500D02*
X27933Y48400D01*
X27733Y48150D01*
X27600Y47850D01*
X27500Y47450D01*
X27467Y47000D01*
X27500Y46550D01*
X27600Y46150D01*
X27733Y45850D01*
X27933Y45600D01*
X28200Y45500D01*
X28467Y45600D01*
X28667Y45850D01*
X28800Y46150D01*
X28900Y46550D01*
X28933Y47000D01*
X28900Y47450D01*
X28800Y47850D01*
X28667Y48150D01*
X28467Y48400D01*
X28200Y48500D01*
G01X8367Y40500D02*
X9200Y37500D01*
X10033Y40500D01*
G01X11133Y37500D02*
Y40500D01*
X11967D01*
X12233Y40350D01*
X12400Y40150D01*
X12467Y39750D01*
X12400Y39350D01*
X12200Y39100D01*
X11967Y38950D01*
X11133D01*
G01X11967D02*
X12467Y37500D01*
G01X18333Y90500D02*
Y93500D01*
X19167D01*
X19433Y93350D01*
X19600Y93150D01*
X19667Y92750D01*
X19600Y92350D01*
X19400Y92100D01*
X19167Y91950D01*
X18333D01*
G01X19167D02*
X19667Y90500D01*
G01X20867Y91100D02*
X21067Y90750D01*
X21333Y90550D01*
X21633Y90500D01*
X21900Y90550D01*
X22167Y90800D01*
X22333Y91100D01*
X22367Y91400D01*
X22300Y91750D01*
X22067Y92000D01*
X21833Y92100D01*
X21533D01*
G01X21833D02*
X22033Y92250D01*
X22200Y92500D01*
X22267Y92800D01*
X22200Y93100D01*
X22033Y93350D01*
X21733Y93500D01*
X21433Y93450D01*
X21133Y93250D01*
G01X24200Y90500D02*
Y93500D01*
X23800Y92900D01*
G01Y90500D02*
X24600D01*
G01X16833Y77500D02*
Y80500D01*
X17667D01*
X17933Y80350D01*
X18100Y80150D01*
X18167Y79750D01*
X18100Y79350D01*
X17900Y79100D01*
X17667Y78950D01*
X16833D01*
G01X17667D02*
X18167Y77500D01*
G01X19367Y78100D02*
X19567Y77750D01*
X19833Y77550D01*
X20133Y77500D01*
X20400Y77550D01*
X20667Y77800D01*
X20833Y78100D01*
X20867Y78400D01*
X20800Y78750D01*
X20567Y79000D01*
X20333Y79100D01*
X20033D01*
G01X20333D02*
X20533Y79250D01*
X20700Y79500D01*
X20767Y79800D01*
X20700Y80100D01*
X20533Y80350D01*
X20233Y80500D01*
X19933Y80450D01*
X19633Y80250D01*
G01X22700Y77500D02*
X22933Y77550D01*
X23200Y77700D01*
X23367Y77950D01*
X23433Y78300D01*
X23367Y78650D01*
X23167Y78950D01*
X22867Y79100D01*
X22533D01*
X22333Y79200D01*
X22167Y79450D01*
X22100Y79800D01*
X22200Y80150D01*
X22433Y80400D01*
X22700Y80500D01*
X22967Y80400D01*
X23200Y80150D01*
X23300Y79800D01*
X23233Y79450D01*
X23067Y79200D01*
X22867Y79100D01*
X22533D01*
X22233Y78950D01*
X22033Y78650D01*
X21967Y78300D01*
X22033Y77950D01*
X22200Y77700D01*
X22467Y77550D01*
X22700Y77500D01*
G01X17333Y65000D02*
Y68000D01*
X18167D01*
X18433Y67850D01*
X18600Y67650D01*
X18667Y67250D01*
X18600Y66850D01*
X18400Y66600D01*
X18167Y66450D01*
X17333D01*
G01X18167D02*
X18667Y65000D01*
G01X19867Y65600D02*
X20067Y65250D01*
X20333Y65050D01*
X20633Y65000D01*
X20900Y65050D01*
X21167Y65300D01*
X21333Y65600D01*
X21367Y65900D01*
X21300Y66250D01*
X21067Y66500D01*
X20833Y66600D01*
X20533D01*
G01X20833D02*
X21033Y66750D01*
X21200Y67000D01*
X21267Y67300D01*
X21200Y67600D01*
X21033Y67850D01*
X20733Y68000D01*
X20433Y67950D01*
X20133Y67750D01*
G01X22633Y65350D02*
X22867Y65100D01*
X23133Y65000D01*
X23400Y65100D01*
X23633Y65400D01*
X23800Y65850D01*
X23867Y66300D01*
Y66850D01*
X23800Y67300D01*
X23633Y67700D01*
X23433Y67900D01*
X23200Y68000D01*
X22933Y67900D01*
X22733Y67700D01*
X22600Y67400D01*
X22533Y67000D01*
X22600Y66650D01*
X22767Y66300D01*
X22967Y66100D01*
X23200Y66050D01*
X23467Y66150D01*
X23667Y66400D01*
X23867Y66850D01*
G01X23000Y130000D02*
X12000D01*
Y110000D01*
X23000D01*
Y130000D01*
G01X17333Y105000D02*
Y108000D01*
X18167D01*
X18433Y107850D01*
X18600Y107650D01*
X18667Y107250D01*
X18600Y106850D01*
X18400Y106600D01*
X18167Y106450D01*
X17333D01*
G01X18167D02*
X18667Y105000D01*
G01X20600D02*
Y108000D01*
X20200Y107400D01*
G01Y105000D02*
X21000D01*
G01X22567Y107500D02*
X22767Y107800D01*
X23000Y107950D01*
X23267Y108000D01*
X23600Y107900D01*
X23833Y107650D01*
X23900Y107350D01*
X23867Y107050D01*
X23733Y106800D01*
X23067Y106300D01*
X22767Y105950D01*
X22567Y105450D01*
X22500Y105000D01*
X23900D01*
G01X7633Y147500D02*
Y150500D01*
X8500Y148000D01*
X9367Y150500D01*
Y147500D01*
G01X10700Y150500D02*
X11500D01*
G01X11100D02*
Y147500D01*
G01X10700D02*
X11500D01*
G01X13033Y150500D02*
Y147500D01*
X14367D01*
G01X17033Y150250D02*
X16833Y150400D01*
X16600Y150500D01*
X16333D01*
X16033Y150350D01*
X15800Y150100D01*
X15633Y149800D01*
X15500Y149300D01*
X15467Y148850D01*
X15533Y148400D01*
X15633Y148100D01*
X15833Y147800D01*
X16067Y147600D01*
X16300Y147500D01*
X16533D01*
X16767Y147600D01*
X16967Y147750D01*
X17133Y147950D01*
G01X18900Y147500D02*
X18633Y147550D01*
X18400Y147750D01*
X18200Y148050D01*
X18067Y148400D01*
X18000Y148800D01*
Y149200D01*
X18067Y149600D01*
X18200Y149950D01*
X18400Y150250D01*
X18633Y150450D01*
X18900Y150500D01*
X19167Y150450D01*
X19400Y150250D01*
X19600Y149950D01*
X19733Y149600D01*
X19800Y149200D01*
Y148800D01*
X19733Y148400D01*
X19600Y148050D01*
X19400Y147750D01*
X19167Y147550D01*
X18900Y147500D01*
G01X20633D02*
Y150500D01*
X21500Y148000D01*
X22367Y150500D01*
Y147500D01*
G01X24767D02*
X23433D01*
Y150500D01*
X24767D01*
G01X24233Y149050D02*
X23433D01*
G01X26700Y150500D02*
Y147500D01*
G01X25933Y150500D02*
X27467D01*
G01X29967Y147500D02*
X28633D01*
Y150500D01*
X29967D01*
G01X29433Y149050D02*
X28633D01*
G01X33667Y147500D02*
X34500Y150500D01*
X35333Y147500D01*
G01X35033Y148550D02*
X33967D01*
G01X36433Y150500D02*
Y147500D01*
X37767D01*
G01X40367D02*
X39033D01*
Y150500D01*
X40367D01*
G01X39833Y149050D02*
X39033D01*
G01X41600Y147500D02*
X43000Y150500D01*
G01X41600D02*
X43000Y147500D01*
G01X44067D02*
X44900Y150500D01*
X45733Y147500D01*
G01X45433Y148550D02*
X44367D01*
G01X50500Y147500D02*
Y150500D01*
X49267Y148350D01*
X50933D01*
G01X51967Y148100D02*
X52167Y147750D01*
X52433Y147550D01*
X52733Y147500D01*
X53000Y147550D01*
X53267Y147800D01*
X53433Y148100D01*
X53467Y148400D01*
X53400Y148750D01*
X53167Y149000D01*
X52933Y149100D01*
X52633D01*
G01X52933D02*
X53133Y149250D01*
X53300Y149500D01*
X53367Y149800D01*
X53300Y150100D01*
X53133Y150350D01*
X52833Y150500D01*
X52533Y150450D01*
X52233Y150250D01*
G01X54667Y150000D02*
X54867Y150300D01*
X55100Y150450D01*
X55367Y150500D01*
X55700Y150400D01*
X55933Y150150D01*
X56000Y149850D01*
X55967Y149550D01*
X55833Y149300D01*
X55167Y148800D01*
X54867Y148450D01*
X54667Y147950D01*
X54600Y147500D01*
X56000D01*
G01X58567D02*
X57233D01*
Y150500D01*
X58567D01*
G01X58033Y149050D02*
X57233D01*
G01X7833Y142500D02*
Y145500D01*
X8633D01*
X8900Y145350D01*
X9100Y145000D01*
X9167Y144600D01*
X9100Y144200D01*
X8933Y143900D01*
X8633Y143750D01*
X7833D01*
G01X10367Y142500D02*
Y145500D01*
X11033D01*
X11300Y145350D01*
X11500Y145150D01*
X11667Y144850D01*
X11800Y144500D01*
X11833Y144000D01*
X11800Y143500D01*
X11667Y143150D01*
X11500Y142850D01*
X11300Y142650D01*
X11033Y142500D01*
X10367D01*
G01X14433Y145250D02*
X14233Y145400D01*
X14000Y145500D01*
X13733D01*
X13433Y145350D01*
X13200Y145100D01*
X13033Y144800D01*
X12900Y144300D01*
X12867Y143850D01*
X12933Y143400D01*
X13033Y143100D01*
X13233Y142800D01*
X13467Y142600D01*
X13700Y142500D01*
X13933D01*
X14167Y142600D01*
X14367Y142750D01*
X14533Y142950D01*
G01X16967Y142500D02*
X15633D01*
Y145500D01*
X16967D01*
G01X16433Y144050D02*
X15633D01*
G01X21100Y145500D02*
X21900D01*
G01X21500D02*
Y142500D01*
G01X21100D02*
X21900D01*
G01X26067Y145000D02*
X26267Y145300D01*
X26500Y145450D01*
X26767Y145500D01*
X27100Y145400D01*
X27333Y145150D01*
X27400Y144850D01*
X27367Y144550D01*
X27233Y144300D01*
X26567Y143800D01*
X26267Y143450D01*
X26067Y142950D01*
X26000Y142500D01*
X27400D01*
G01X29300Y145500D02*
X29033Y145400D01*
X28833Y145150D01*
X28700Y144850D01*
X28600Y144450D01*
X28567Y144000D01*
X28600Y143550D01*
X28700Y143150D01*
X28833Y142850D01*
X29033Y142600D01*
X29300Y142500D01*
X29567Y142600D01*
X29767Y142850D01*
X29900Y143150D01*
X30000Y143550D01*
X30033Y144000D01*
X30000Y144450D01*
X29900Y144850D01*
X29767Y145150D01*
X29567Y145400D01*
X29300Y145500D01*
G01X31267Y145000D02*
X31467Y145300D01*
X31700Y145450D01*
X31967Y145500D01*
X32300Y145400D01*
X32533Y145150D01*
X32600Y144850D01*
X32567Y144550D01*
X32433Y144300D01*
X31767Y143800D01*
X31467Y143450D01*
X31267Y142950D01*
X31200Y142500D01*
X32600D01*
G01X33867Y145000D02*
X34067Y145300D01*
X34300Y145450D01*
X34567Y145500D01*
X34900Y145400D01*
X35133Y145150D01*
X35200Y144850D01*
X35167Y144550D01*
X35033Y144300D01*
X34367Y143800D01*
X34067Y143450D01*
X33867Y142950D01*
X33800Y142500D01*
X35200D01*
G01X36667Y143500D02*
X37533D01*
G01X39067Y145000D02*
X39267Y145300D01*
X39500Y145450D01*
X39767Y145500D01*
X40100Y145400D01*
X40333Y145150D01*
X40400Y144850D01*
X40367Y144550D01*
X40233Y144300D01*
X39567Y143800D01*
X39267Y143450D01*
X39067Y142950D01*
X39000Y142500D01*
X40400D01*
G01X42300Y145500D02*
X42033Y145400D01*
X41833Y145150D01*
X41700Y144850D01*
X41600Y144450D01*
X41567Y144000D01*
X41600Y143550D01*
X41700Y143150D01*
X41833Y142850D01*
X42033Y142600D01*
X42300Y142500D01*
X42567Y142600D01*
X42767Y142850D01*
X42900Y143150D01*
X43000Y143550D01*
X43033Y144000D01*
X43000Y144450D01*
X42900Y144850D01*
X42767Y145150D01*
X42567Y145400D01*
X42300Y145500D01*
G01X44267Y145000D02*
X44467Y145300D01*
X44700Y145450D01*
X44967Y145500D01*
X45300Y145400D01*
X45533Y145150D01*
X45600Y144850D01*
X45567Y144550D01*
X45433Y144300D01*
X44767Y143800D01*
X44467Y143450D01*
X44267Y142950D01*
X44200Y142500D01*
X45600D01*
G01X46767Y143100D02*
X46967Y142750D01*
X47233Y142550D01*
X47533Y142500D01*
X47800Y142550D01*
X48067Y142800D01*
X48233Y143100D01*
X48267Y143400D01*
X48200Y143750D01*
X47967Y144000D01*
X47733Y144100D01*
X47433D01*
G01X47733D02*
X47933Y144250D01*
X48100Y144500D01*
X48167Y144800D01*
X48100Y145100D01*
X47933Y145350D01*
X47633Y145500D01*
X47333Y145450D01*
X47033Y145250D01*
G01X14067Y135500D02*
X14900Y132500D01*
X15733Y135500D01*
G01X17100D02*
X17900D01*
G01X17500D02*
Y132500D01*
G01X17100D02*
X17900D01*
G01X19333D02*
Y135500D01*
X20867Y132500D01*
Y135500D01*
G01X29333Y134500D02*
Y131500D01*
X30667D01*
G01X33267D02*
X31933D01*
Y134500D01*
X33267D01*
G01X32733Y133050D02*
X31933D01*
G01X34467Y131500D02*
Y134500D01*
X35133D01*
X35400Y134350D01*
X35600Y134150D01*
X35767Y133850D01*
X35900Y133500D01*
X35933Y133000D01*
X35900Y132500D01*
X35767Y132150D01*
X35600Y131850D01*
X35400Y131650D01*
X35133Y131500D01*
X34467D01*
G01X37800D02*
Y134500D01*
X37400Y133900D01*
G01Y131500D02*
X38200D01*
G01X57500Y35500D02*
Y30000D01*
X65500D01*
Y31500D01*
G01X60500Y50000D02*
X60233Y50050D01*
X60000Y50250D01*
X59800Y50550D01*
X59667Y50900D01*
X59600Y51300D01*
Y51700D01*
X59667Y52100D01*
X59800Y52450D01*
X60000Y52750D01*
X60233Y52950D01*
X60500Y53000D01*
X60767Y52950D01*
X61000Y52750D01*
X61200Y52450D01*
X61333Y52100D01*
X61400Y51700D01*
Y51300D01*
X61333Y50900D01*
X61200Y50550D01*
X61000Y50250D01*
X60767Y50050D01*
X60500Y50000D01*
G01X60767Y50800D02*
X61167Y50000D01*
G01X63100D02*
Y53000D01*
X62700Y52400D01*
G01Y50000D02*
X63500D01*
G01X66000Y46000D02*
Y48000D01*
X57500D01*
Y42000D01*
G01X41333Y37000D02*
Y40000D01*
X42133D01*
X42400Y39850D01*
X42600Y39500D01*
X42667Y39100D01*
X42600Y38700D01*
X42433Y38400D01*
X42133Y38250D01*
X41333D01*
G01X44600Y37000D02*
Y40000D01*
X44200Y39400D01*
G01Y37000D02*
X45000D01*
G01X40000Y85000D02*
X48000D01*
G01X43333Y69000D02*
Y72000D01*
X44167D01*
X44433Y71850D01*
X44600Y71650D01*
X44667Y71250D01*
X44600Y70850D01*
X44400Y70600D01*
X44167Y70450D01*
X43333D01*
G01X44167D02*
X44667Y69000D01*
G01X46600D02*
X46833Y69050D01*
X47100Y69200D01*
X47267Y69450D01*
X47333Y69800D01*
X47267Y70150D01*
X47067Y70450D01*
X46767Y70600D01*
X46433D01*
X46233Y70700D01*
X46067Y70950D01*
X46000Y71300D01*
X46100Y71650D01*
X46333Y71900D01*
X46600Y72000D01*
X46867Y71900D01*
X47100Y71650D01*
X47200Y71300D01*
X47133Y70950D01*
X46967Y70700D01*
X46767Y70600D01*
X46433D01*
X46133Y70450D01*
X45933Y70150D01*
X45867Y69800D01*
X45933Y69450D01*
X46100Y69200D01*
X46367Y69050D01*
X46600Y69000D01*
G01X40000Y90500D02*
Y85000D01*
G01X48000D02*
Y86500D01*
G01X57267Y85000D02*
Y88000D01*
X57933D01*
X58200Y87850D01*
X58400Y87650D01*
X58567Y87350D01*
X58700Y87000D01*
X58733Y86500D01*
X58700Y86000D01*
X58567Y85650D01*
X58400Y85350D01*
X58200Y85150D01*
X57933Y85000D01*
X57267D01*
G01X60600D02*
Y88000D01*
X60200Y87400D01*
G01Y85000D02*
X61000D01*
G01X60000Y115500D02*
Y110000D01*
X68000D01*
Y111500D01*
G01X44500Y104500D02*
X44233Y104550D01*
X44000Y104750D01*
X43800Y105050D01*
X43667Y105400D01*
X43600Y105800D01*
Y106200D01*
X43667Y106600D01*
X43800Y106950D01*
X44000Y107250D01*
X44233Y107450D01*
X44500Y107500D01*
X44767Y107450D01*
X45000Y107250D01*
X45200Y106950D01*
X45333Y106600D01*
X45400Y106200D01*
Y105800D01*
X45333Y105400D01*
X45200Y105050D01*
X45000Y104750D01*
X44767Y104550D01*
X44500Y104500D01*
G01X44767Y105300D02*
X45167Y104500D01*
G01X47100D02*
Y107500D01*
X46700Y106900D01*
G01Y104500D02*
X47500D01*
G01X49700Y107500D02*
X49433Y107400D01*
X49233Y107150D01*
X49100Y106850D01*
X49000Y106450D01*
X48967Y106000D01*
X49000Y105550D01*
X49100Y105150D01*
X49233Y104850D01*
X49433Y104600D01*
X49700Y104500D01*
X49967Y104600D01*
X50167Y104850D01*
X50300Y105150D01*
X50400Y105550D01*
X50433Y106000D01*
X50400Y106450D01*
X50300Y106850D01*
X50167Y107150D01*
X49967Y107400D01*
X49700Y107500D01*
G01X48500Y101000D02*
Y103000D01*
X40000D01*
Y97000D01*
G01X46333Y131500D02*
Y134500D01*
X47167D01*
X47433Y134350D01*
X47600Y134150D01*
X47667Y133750D01*
X47600Y133350D01*
X47400Y133100D01*
X47167Y132950D01*
X46333D01*
G01X47167D02*
X47667Y131500D01*
G01X48867Y132100D02*
X49067Y131750D01*
X49333Y131550D01*
X49633Y131500D01*
X49900Y131550D01*
X50167Y131800D01*
X50333Y132100D01*
X50367Y132400D01*
X50300Y132750D01*
X50067Y133000D01*
X49833Y133100D01*
X49533D01*
G01X49833D02*
X50033Y133250D01*
X50200Y133500D01*
X50267Y133800D01*
X50200Y134100D01*
X50033Y134350D01*
X49733Y134500D01*
X49433Y134450D01*
X49133Y134250D01*
G01X51467Y131950D02*
X51667Y131700D01*
X51900Y131550D01*
X52200Y131500D01*
X52500Y131600D01*
X52733Y131800D01*
X52900Y132150D01*
X52933Y132550D01*
X52867Y132950D01*
X52700Y133200D01*
X52467Y133400D01*
X52233Y133450D01*
X52000Y133400D01*
X51700Y133200D01*
X51800Y134500D01*
X52700D01*
G01X68500Y126000D02*
Y128000D01*
X60000D01*
Y122000D01*
G01X67333Y17000D02*
Y20000D01*
X68167D01*
X68433Y19850D01*
X68600Y19650D01*
X68667Y19250D01*
X68600Y18850D01*
X68400Y18600D01*
X68167Y18450D01*
X67333D01*
G01X68167D02*
X68667Y17000D01*
G01X69867Y17600D02*
X70067Y17250D01*
X70333Y17050D01*
X70633Y17000D01*
X70900Y17050D01*
X71167Y17300D01*
X71333Y17600D01*
X71367Y17900D01*
X71300Y18250D01*
X71067Y18500D01*
X70833Y18600D01*
X70533D01*
G01X70833D02*
X71033Y18750D01*
X71200Y19000D01*
X71267Y19300D01*
X71200Y19600D01*
X71033Y19850D01*
X70733Y20000D01*
X70433Y19950D01*
X70133Y19750D01*
G01X73600Y17000D02*
Y20000D01*
X72367Y17850D01*
X74033D01*
G01X76500Y44000D02*
X76233Y44050D01*
X76000Y44250D01*
X75800Y44550D01*
X75667Y44900D01*
X75600Y45300D01*
Y45700D01*
X75667Y46100D01*
X75800Y46450D01*
X76000Y46750D01*
X76233Y46950D01*
X76500Y47000D01*
X76767Y46950D01*
X77000Y46750D01*
X77200Y46450D01*
X77333Y46100D01*
X77400Y45700D01*
Y45300D01*
X77333Y44900D01*
X77200Y44550D01*
X77000Y44250D01*
X76767Y44050D01*
X76500Y44000D01*
G01X76767Y44800D02*
X77167Y44000D01*
G01X79033D02*
X79100Y44650D01*
X79200Y45200D01*
X79333Y45700D01*
X79500Y46250D01*
X79767Y47000D01*
X78433D01*
G01X80500Y42500D02*
X75000D01*
Y34500D01*
X76500D01*
G01X91000Y34000D02*
X93000D01*
Y42500D01*
X87000D01*
G01X81063Y98248D02*
Y91563D01*
X80000Y90500D01*
Y74500D01*
X108500D01*
Y90000D01*
X107047Y91453D01*
Y98248D01*
G01X76833Y65000D02*
Y68000D01*
X77667D01*
X77933Y67850D01*
X78100Y67650D01*
X78167Y67250D01*
X78100Y66850D01*
X77900Y66600D01*
X77667Y66450D01*
X76833D01*
G01X77667D02*
X78167Y65000D01*
G01X79533Y65350D02*
X79767Y65100D01*
X80033Y65000D01*
X80300Y65100D01*
X80533Y65400D01*
X80700Y65850D01*
X80767Y66300D01*
Y66850D01*
X80700Y67300D01*
X80533Y67700D01*
X80333Y67900D01*
X80100Y68000D01*
X79833Y67900D01*
X79633Y67700D01*
X79500Y67400D01*
X79433Y67000D01*
X79500Y66650D01*
X79667Y66300D01*
X79867Y66100D01*
X80100Y66050D01*
X80367Y66150D01*
X80567Y66400D01*
X80767Y66850D01*
G01X62500Y78000D02*
Y72500D01*
X70500D01*
Y74000D01*
G01X71000Y88500D02*
Y90500D01*
X62500D01*
Y84500D01*
G01X69333Y102500D02*
Y105500D01*
X70167D01*
X70433Y105350D01*
X70600Y105150D01*
X70667Y104750D01*
X70600Y104350D01*
X70400Y104100D01*
X70167Y103950D01*
X69333D01*
G01X70167D02*
X70667Y102500D01*
G01X71867Y103100D02*
X72067Y102750D01*
X72333Y102550D01*
X72633Y102500D01*
X72900Y102550D01*
X73167Y102800D01*
X73333Y103100D01*
X73367Y103400D01*
X73300Y103750D01*
X73067Y104000D01*
X72833Y104100D01*
X72533D01*
G01X72833D02*
X73033Y104250D01*
X73200Y104500D01*
X73267Y104800D01*
X73200Y105100D01*
X73033Y105350D01*
X72733Y105500D01*
X72433Y105450D01*
X72133Y105250D01*
G01X80333Y151500D02*
Y148500D01*
X81667D01*
G01X84267D02*
X82933D01*
Y151500D01*
X84267D01*
G01X83733Y150050D02*
X82933D01*
G01X85467Y148500D02*
Y151500D01*
X86133D01*
X86400Y151350D01*
X86600Y151150D01*
X86767Y150850D01*
X86900Y150500D01*
X86933Y150000D01*
X86900Y149500D01*
X86767Y149150D01*
X86600Y148850D01*
X86400Y148650D01*
X86133Y148500D01*
X85467D01*
G01X88167Y151000D02*
X88367Y151300D01*
X88600Y151450D01*
X88867Y151500D01*
X89200Y151400D01*
X89433Y151150D01*
X89500Y150850D01*
X89467Y150550D01*
X89333Y150300D01*
X88667Y149800D01*
X88367Y149450D01*
X88167Y148950D01*
X88100Y148500D01*
X89500D01*
G01X64000Y131000D02*
X63733Y131050D01*
X63500Y131250D01*
X63300Y131550D01*
X63167Y131900D01*
X63100Y132300D01*
Y132700D01*
X63167Y133100D01*
X63300Y133450D01*
X63500Y133750D01*
X63733Y133950D01*
X64000Y134000D01*
X64267Y133950D01*
X64500Y133750D01*
X64700Y133450D01*
X64833Y133100D01*
X64900Y132700D01*
Y132300D01*
X64833Y131900D01*
X64700Y131550D01*
X64500Y131250D01*
X64267Y131050D01*
X64000Y131000D01*
G01X64267Y131800D02*
X64667Y131000D01*
G01X66033Y131350D02*
X66267Y131100D01*
X66533Y131000D01*
X66800Y131100D01*
X67033Y131400D01*
X67200Y131850D01*
X67267Y132300D01*
Y132850D01*
X67200Y133300D01*
X67033Y133700D01*
X66833Y133900D01*
X66600Y134000D01*
X66333Y133900D01*
X66133Y133700D01*
X66000Y133400D01*
X65933Y133000D01*
X66000Y132650D01*
X66167Y132300D01*
X66367Y132100D01*
X66600Y132050D01*
X66867Y132150D01*
X67067Y132400D01*
X67267Y132850D01*
G01X97833Y22000D02*
Y25000D01*
X98667D01*
X98933Y24850D01*
X99100Y24650D01*
X99167Y24250D01*
X99100Y23850D01*
X98900Y23600D01*
X98667Y23450D01*
X97833D01*
G01X98667D02*
X99167Y22000D01*
G01X100367Y22600D02*
X100567Y22250D01*
X100833Y22050D01*
X101133Y22000D01*
X101400Y22050D01*
X101667Y22300D01*
X101833Y22600D01*
X101867Y22900D01*
X101800Y23250D01*
X101567Y23500D01*
X101333Y23600D01*
X101033D01*
G01X101333D02*
X101533Y23750D01*
X101700Y24000D01*
X101767Y24300D01*
X101700Y24600D01*
X101533Y24850D01*
X101233Y25000D01*
X100933Y24950D01*
X100633Y24750D01*
G01X102967Y22600D02*
X103167Y22250D01*
X103433Y22050D01*
X103733Y22000D01*
X104000Y22050D01*
X104267Y22300D01*
X104433Y22600D01*
X104467Y22900D01*
X104400Y23250D01*
X104167Y23500D01*
X103933Y23600D01*
X103633D01*
G01X103933D02*
X104133Y23750D01*
X104300Y24000D01*
X104367Y24300D01*
X104300Y24600D01*
X104133Y24850D01*
X103833Y25000D01*
X103533Y24950D01*
X103233Y24750D01*
G01X111333Y22500D02*
Y25500D01*
X112167D01*
X112433Y25350D01*
X112600Y25150D01*
X112667Y24750D01*
X112600Y24350D01*
X112400Y24100D01*
X112167Y23950D01*
X111333D01*
G01X112167D02*
X112667Y22500D01*
G01X113867Y23100D02*
X114067Y22750D01*
X114333Y22550D01*
X114633Y22500D01*
X114900Y22550D01*
X115167Y22800D01*
X115333Y23100D01*
X115367Y23400D01*
X115300Y23750D01*
X115067Y24000D01*
X114833Y24100D01*
X114533D01*
G01X114833D02*
X115033Y24250D01*
X115200Y24500D01*
X115267Y24800D01*
X115200Y25100D01*
X115033Y25350D01*
X114733Y25500D01*
X114433Y25450D01*
X114133Y25250D01*
G01X117133Y22500D02*
X117200Y23150D01*
X117300Y23700D01*
X117433Y24200D01*
X117600Y24750D01*
X117867Y25500D01*
X116533D01*
G01X93500Y27500D02*
X93233Y27550D01*
X93000Y27750D01*
X92800Y28050D01*
X92667Y28400D01*
X92600Y28800D01*
Y29200D01*
X92667Y29600D01*
X92800Y29950D01*
X93000Y30250D01*
X93233Y30450D01*
X93500Y30500D01*
X93767Y30450D01*
X94000Y30250D01*
X94200Y29950D01*
X94333Y29600D01*
X94400Y29200D01*
Y28800D01*
X94333Y28400D01*
X94200Y28050D01*
X94000Y27750D01*
X93767Y27550D01*
X93500Y27500D01*
G01X93767Y28300D02*
X94167Y27500D01*
G01X96100D02*
Y30500D01*
X95700Y29900D01*
G01Y27500D02*
X96500D01*
G01X98700D02*
Y30500D01*
X98300Y29900D01*
G01Y27500D02*
X99100D01*
G01X100000Y33000D02*
Y27500D01*
X108000D01*
Y29000D01*
G01X120000Y30500D02*
Y25000D01*
X128000D01*
Y26500D01*
G01X108333Y51000D02*
Y54000D01*
X109167D01*
X109433Y53850D01*
X109600Y53650D01*
X109667Y53250D01*
X109600Y52850D01*
X109400Y52600D01*
X109167Y52450D01*
X108333D01*
G01X109167D02*
X109667Y51000D01*
G01X110867Y51600D02*
X111067Y51250D01*
X111333Y51050D01*
X111633Y51000D01*
X111900Y51050D01*
X112167Y51300D01*
X112333Y51600D01*
X112367Y51900D01*
X112300Y52250D01*
X112067Y52500D01*
X111833Y52600D01*
X111533D01*
G01X111833D02*
X112033Y52750D01*
X112200Y53000D01*
X112267Y53300D01*
X112200Y53600D01*
X112033Y53850D01*
X111733Y54000D01*
X111433Y53950D01*
X111133Y53750D01*
G01X113567Y53500D02*
X113767Y53800D01*
X114000Y53950D01*
X114267Y54000D01*
X114600Y53900D01*
X114833Y53650D01*
X114900Y53350D01*
X114867Y53050D01*
X114733Y52800D01*
X114067Y52300D01*
X113767Y51950D01*
X113567Y51450D01*
X113500Y51000D01*
X114900D01*
G01X108500Y43500D02*
Y45500D01*
X100000D01*
Y39500D01*
G01X128500Y41000D02*
Y43000D01*
X120000D01*
Y37000D01*
G01X97333Y67500D02*
Y70500D01*
X98167D01*
X98433Y70350D01*
X98600Y70150D01*
X98667Y69750D01*
X98600Y69350D01*
X98400Y69100D01*
X98167Y68950D01*
X97333D01*
G01X98167D02*
X98667Y67500D01*
G01X100600D02*
Y70500D01*
X100200Y69900D01*
G01Y67500D02*
X101000D01*
G01X103600D02*
Y70500D01*
X102367Y68350D01*
X104033D01*
G01X115833Y65500D02*
Y68500D01*
X116667D01*
X116933Y68350D01*
X117100Y68150D01*
X117167Y67750D01*
X117100Y67350D01*
X116900Y67100D01*
X116667Y66950D01*
X115833D01*
G01X116667D02*
X117167Y65500D01*
G01X118367Y66100D02*
X118567Y65750D01*
X118833Y65550D01*
X119133Y65500D01*
X119400Y65550D01*
X119667Y65800D01*
X119833Y66100D01*
X119867Y66400D01*
X119800Y66750D01*
X119567Y67000D01*
X119333Y67100D01*
X119033D01*
G01X119333D02*
X119533Y67250D01*
X119700Y67500D01*
X119767Y67800D01*
X119700Y68100D01*
X119533Y68350D01*
X119233Y68500D01*
X118933Y68450D01*
X118633Y68250D01*
G01X121700Y68500D02*
X121433Y68400D01*
X121233Y68150D01*
X121100Y67850D01*
X121000Y67450D01*
X120967Y67000D01*
X121000Y66550D01*
X121100Y66150D01*
X121233Y65850D01*
X121433Y65600D01*
X121700Y65500D01*
X121967Y65600D01*
X122167Y65850D01*
X122300Y66150D01*
X122400Y66550D01*
X122433Y67000D01*
X122400Y67450D01*
X122300Y67850D01*
X122167Y68150D01*
X121967Y68400D01*
X121700Y68500D01*
G01X117500Y95500D02*
Y90000D01*
X125500D01*
Y91500D01*
G01X114833Y111500D02*
Y114500D01*
X115667D01*
X115933Y114350D01*
X116100Y114150D01*
X116167Y113750D01*
X116100Y113350D01*
X115900Y113100D01*
X115667Y112950D01*
X114833D01*
G01X115667D02*
X116167Y111500D01*
G01X118100D02*
Y114500D01*
X117700Y113900D01*
G01Y111500D02*
X118500D01*
G01X120133Y111850D02*
X120367Y111600D01*
X120633Y111500D01*
X120900Y111600D01*
X121133Y111900D01*
X121300Y112350D01*
X121367Y112800D01*
Y113350D01*
X121300Y113800D01*
X121133Y114200D01*
X120933Y114400D01*
X120700Y114500D01*
X120433Y114400D01*
X120233Y114200D01*
X120100Y113900D01*
X120033Y113500D01*
X120100Y113150D01*
X120267Y112800D01*
X120467Y112600D01*
X120700Y112550D01*
X120967Y112650D01*
X121167Y112900D01*
X121367Y113350D01*
G01X113000Y105500D02*
X112733Y105550D01*
X112500Y105750D01*
X112300Y106050D01*
X112167Y106400D01*
X112100Y106800D01*
Y107200D01*
X112167Y107600D01*
X112300Y107950D01*
X112500Y108250D01*
X112733Y108450D01*
X113000Y108500D01*
X113267Y108450D01*
X113500Y108250D01*
X113700Y107950D01*
X113833Y107600D01*
X113900Y107200D01*
Y106800D01*
X113833Y106400D01*
X113700Y106050D01*
X113500Y105750D01*
X113267Y105550D01*
X113000Y105500D01*
G01X113267Y106300D02*
X113667Y105500D01*
G01X114867Y106100D02*
X115067Y105750D01*
X115333Y105550D01*
X115633Y105500D01*
X115900Y105550D01*
X116167Y105800D01*
X116333Y106100D01*
X116367Y106400D01*
X116300Y106750D01*
X116067Y107000D01*
X115833Y107100D01*
X115533D01*
G01X115833D02*
X116033Y107250D01*
X116200Y107500D01*
X116267Y107800D01*
X116200Y108100D01*
X116033Y108350D01*
X115733Y108500D01*
X115433Y108450D01*
X115133Y108250D01*
G01X126000Y106000D02*
Y108000D01*
X117500D01*
Y102000D01*
G01X118367Y152000D02*
X119200Y149000D01*
X120033Y152000D01*
G01X121800Y149000D02*
X121533Y149050D01*
X121300Y149250D01*
X121100Y149550D01*
X120967Y149900D01*
X120900Y150300D01*
Y150700D01*
X120967Y151100D01*
X121100Y151450D01*
X121300Y151750D01*
X121533Y151950D01*
X121800Y152000D01*
X122067Y151950D01*
X122300Y151750D01*
X122500Y151450D01*
X122633Y151100D01*
X122700Y150700D01*
Y150300D01*
X122633Y149900D01*
X122500Y149550D01*
X122300Y149250D01*
X122067Y149050D01*
X121800Y149000D01*
G01X125500Y147500D02*
X114500D01*
Y127500D01*
X125500D01*
Y147500D01*
G01X94333Y141000D02*
Y144000D01*
X95167D01*
X95433Y143850D01*
X95600Y143650D01*
X95667Y143250D01*
X95600Y142850D01*
X95400Y142600D01*
X95167Y142450D01*
X94333D01*
G01X95167D02*
X95667Y141000D01*
G01X96867Y141600D02*
X97067Y141250D01*
X97333Y141050D01*
X97633Y141000D01*
X97900Y141050D01*
X98167Y141300D01*
X98333Y141600D01*
X98367Y141900D01*
X98300Y142250D01*
X98067Y142500D01*
X97833Y142600D01*
X97533D01*
G01X97833D02*
X98033Y142750D01*
X98200Y143000D01*
X98267Y143300D01*
X98200Y143600D01*
X98033Y143850D01*
X97733Y144000D01*
X97433Y143950D01*
X97133Y143750D01*
G01X99567Y142250D02*
X99800Y142600D01*
X100000Y142800D01*
X100267Y142900D01*
X100500Y142800D01*
X100667Y142600D01*
X100800Y142300D01*
X100833Y141950D01*
X100800Y141650D01*
X100667Y141350D01*
X100467Y141100D01*
X100233Y141000D01*
X99967Y141100D01*
X99733Y141400D01*
X99600Y141850D01*
X99567Y142350D01*
X99633Y143000D01*
X99733Y143350D01*
X99900Y143700D01*
X100133Y143950D01*
X100367Y144000D01*
X100600Y143900D01*
X100767Y143650D01*
G01X95500Y126000D02*
X95233Y126050D01*
X95000Y126250D01*
X94800Y126550D01*
X94667Y126900D01*
X94600Y127300D01*
Y127700D01*
X94667Y128100D01*
X94800Y128450D01*
X95000Y128750D01*
X95233Y128950D01*
X95500Y129000D01*
X95767Y128950D01*
X96000Y128750D01*
X96200Y128450D01*
X96333Y128100D01*
X96400Y127700D01*
Y127300D01*
X96333Y126900D01*
X96200Y126550D01*
X96000Y126250D01*
X95767Y126050D01*
X95500Y126000D01*
G01X95767Y126800D02*
X96167Y126000D01*
G01X98100D02*
X98333Y126050D01*
X98600Y126200D01*
X98767Y126450D01*
X98833Y126800D01*
X98767Y127150D01*
X98567Y127450D01*
X98267Y127600D01*
X97933D01*
X97733Y127700D01*
X97567Y127950D01*
X97500Y128300D01*
X97600Y128650D01*
X97833Y128900D01*
X98100Y129000D01*
X98367Y128900D01*
X98600Y128650D01*
X98700Y128300D01*
X98633Y127950D01*
X98467Y127700D01*
X98267Y127600D01*
X97933D01*
X97633Y127450D01*
X97433Y127150D01*
X97367Y126800D01*
X97433Y126450D01*
X97600Y126200D01*
X97867Y126050D01*
X98100Y126000D01*
G01X137833Y20500D02*
Y23500D01*
X138667D01*
X138933Y23350D01*
X139100Y23150D01*
X139167Y22750D01*
X139100Y22350D01*
X138900Y22100D01*
X138667Y21950D01*
X137833D01*
G01X138667D02*
X139167Y20500D01*
G01X140467Y23000D02*
X140667Y23300D01*
X140900Y23450D01*
X141167Y23500D01*
X141500Y23400D01*
X141733Y23150D01*
X141800Y22850D01*
X141767Y22550D01*
X141633Y22300D01*
X140967Y21800D01*
X140667Y21450D01*
X140467Y20950D01*
X140400Y20500D01*
X141800D01*
G01X143067Y21750D02*
X143300Y22100D01*
X143500Y22300D01*
X143767Y22400D01*
X144000Y22300D01*
X144167Y22100D01*
X144300Y21800D01*
X144333Y21450D01*
X144300Y21150D01*
X144167Y20850D01*
X143967Y20600D01*
X143733Y20500D01*
X143467Y20600D01*
X143233Y20900D01*
X143100Y21350D01*
X143067Y21850D01*
X143133Y22500D01*
X143233Y22850D01*
X143400Y23200D01*
X143633Y23450D01*
X143867Y23500D01*
X144100Y23400D01*
X144267Y23150D01*
G01X141333Y43500D02*
Y46500D01*
X142167D01*
X142433Y46350D01*
X142600Y46150D01*
X142667Y45750D01*
X142600Y45350D01*
X142400Y45100D01*
X142167Y44950D01*
X141333D01*
G01X142167D02*
X142667Y43500D01*
G01X143967Y46000D02*
X144167Y46300D01*
X144400Y46450D01*
X144667Y46500D01*
X145000Y46400D01*
X145233Y46150D01*
X145300Y45850D01*
X145267Y45550D01*
X145133Y45300D01*
X144467Y44800D01*
X144167Y44450D01*
X143967Y43950D01*
X143900Y43500D01*
X145300D01*
G01X147200D02*
X147433Y43550D01*
X147700Y43700D01*
X147867Y43950D01*
X147933Y44300D01*
X147867Y44650D01*
X147667Y44950D01*
X147367Y45100D01*
X147033D01*
X146833Y45200D01*
X146667Y45450D01*
X146600Y45800D01*
X146700Y46150D01*
X146933Y46400D01*
X147200Y46500D01*
X147467Y46400D01*
X147700Y46150D01*
X147800Y45800D01*
X147733Y45450D01*
X147567Y45200D01*
X147367Y45100D01*
X147033D01*
X146733Y44950D01*
X146533Y44650D01*
X146467Y44300D01*
X146533Y43950D01*
X146700Y43700D01*
X146967Y43550D01*
X147200Y43500D01*
G01X144500Y52500D02*
X150000D01*
Y60500D01*
X148500D01*
G01X134000Y61000D02*
X132000D01*
Y52500D01*
X138000D01*
G01X122500Y45000D02*
X122233Y45050D01*
X122000Y45250D01*
X121800Y45550D01*
X121667Y45900D01*
X121600Y46300D01*
Y46700D01*
X121667Y47100D01*
X121800Y47450D01*
X122000Y47750D01*
X122233Y47950D01*
X122500Y48000D01*
X122767Y47950D01*
X123000Y47750D01*
X123200Y47450D01*
X123333Y47100D01*
X123400Y46700D01*
Y46300D01*
X123333Y45900D01*
X123200Y45550D01*
X123000Y45250D01*
X122767Y45050D01*
X122500Y45000D01*
G01X122767Y45800D02*
X123167Y45000D01*
G01X124467Y47500D02*
X124667Y47800D01*
X124900Y47950D01*
X125167Y48000D01*
X125500Y47900D01*
X125733Y47650D01*
X125800Y47350D01*
X125767Y47050D01*
X125633Y46800D01*
X124967Y46300D01*
X124667Y45950D01*
X124467Y45450D01*
X124400Y45000D01*
X125800D01*
G01X122333Y80000D02*
Y83000D01*
X123167D01*
X123433Y82850D01*
X123600Y82650D01*
X123667Y82250D01*
X123600Y81850D01*
X123400Y81600D01*
X123167Y81450D01*
X122333D01*
G01X123167D02*
X123667Y80000D01*
G01X124967Y82500D02*
X125167Y82800D01*
X125400Y82950D01*
X125667Y83000D01*
X126000Y82900D01*
X126233Y82650D01*
X126300Y82350D01*
X126267Y82050D01*
X126133Y81800D01*
X125467Y81300D01*
X125167Y80950D01*
X124967Y80450D01*
X124900Y80000D01*
X126300D01*
G01X128133D02*
X128200Y80650D01*
X128300Y81200D01*
X128433Y81700D01*
X128600Y82250D01*
X128867Y83000D01*
X127533D01*
G01X135000Y84500D02*
X134733Y84550D01*
X134500Y84750D01*
X134300Y85050D01*
X134167Y85400D01*
X134100Y85800D01*
Y86200D01*
X134167Y86600D01*
X134300Y86950D01*
X134500Y87250D01*
X134733Y87450D01*
X135000Y87500D01*
X135267Y87450D01*
X135500Y87250D01*
X135700Y86950D01*
X135833Y86600D01*
X135900Y86200D01*
Y85800D01*
X135833Y85400D01*
X135700Y85050D01*
X135500Y84750D01*
X135267Y84550D01*
X135000Y84500D01*
G01X135267Y85300D02*
X135667Y84500D01*
G01X136967Y85750D02*
X137200Y86100D01*
X137400Y86300D01*
X137667Y86400D01*
X137900Y86300D01*
X138067Y86100D01*
X138200Y85800D01*
X138233Y85450D01*
X138200Y85150D01*
X138067Y84850D01*
X137867Y84600D01*
X137633Y84500D01*
X137367Y84600D01*
X137133Y84900D01*
X137000Y85350D01*
X136967Y85850D01*
X137033Y86500D01*
X137133Y86850D01*
X137300Y87200D01*
X137533Y87450D01*
X137767Y87500D01*
X138000Y87400D01*
X138167Y87150D01*
G01X135500Y80000D02*
X130000D01*
Y72000D01*
X131500D01*
G01X146000Y71500D02*
X148000D01*
Y80000D01*
X142000D01*
G01X147500Y65500D02*
X147233Y65550D01*
X147000Y65750D01*
X146800Y66050D01*
X146667Y66400D01*
X146600Y66800D01*
Y67200D01*
X146667Y67600D01*
X146800Y67950D01*
X147000Y68250D01*
X147233Y68450D01*
X147500Y68500D01*
X147767Y68450D01*
X148000Y68250D01*
X148200Y67950D01*
X148333Y67600D01*
X148400Y67200D01*
Y66800D01*
X148333Y66400D01*
X148200Y66050D01*
X148000Y65750D01*
X147767Y65550D01*
X147500Y65500D01*
G01X147767Y66300D02*
X148167Y65500D01*
G01X149367Y65950D02*
X149567Y65700D01*
X149800Y65550D01*
X150100Y65500D01*
X150400Y65600D01*
X150633Y65800D01*
X150800Y66150D01*
X150833Y66550D01*
X150767Y66950D01*
X150600Y67200D01*
X150367Y67400D01*
X150133Y67450D01*
X149900Y67400D01*
X149600Y67200D01*
X149700Y68500D01*
X150600D01*
G01X126333Y111500D02*
Y114500D01*
X127167D01*
X127433Y114350D01*
X127600Y114150D01*
X127667Y113750D01*
X127600Y113350D01*
X127400Y113100D01*
X127167Y112950D01*
X126333D01*
G01X127167D02*
X127667Y111500D01*
G01X128967Y114000D02*
X129167Y114300D01*
X129400Y114450D01*
X129667Y114500D01*
X130000Y114400D01*
X130233Y114150D01*
X130300Y113850D01*
X130267Y113550D01*
X130133Y113300D01*
X129467Y112800D01*
X129167Y112450D01*
X128967Y111950D01*
X128900Y111500D01*
X130300D01*
G01X131633Y111850D02*
X131867Y111600D01*
X132133Y111500D01*
X132400Y111600D01*
X132633Y111900D01*
X132800Y112350D01*
X132867Y112800D01*
Y113350D01*
X132800Y113800D01*
X132633Y114200D01*
X132433Y114400D01*
X132200Y114500D01*
X131933Y114400D01*
X131733Y114200D01*
X131600Y113900D01*
X131533Y113500D01*
X131600Y113150D01*
X131767Y112800D01*
X131967Y112600D01*
X132200Y112550D01*
X132467Y112650D01*
X132667Y112900D01*
X132867Y113350D01*
G01X142500Y105500D02*
X142233Y105550D01*
X142000Y105750D01*
X141800Y106050D01*
X141667Y106400D01*
X141600Y106800D01*
Y107200D01*
X141667Y107600D01*
X141800Y107950D01*
X142000Y108250D01*
X142233Y108450D01*
X142500Y108500D01*
X142767Y108450D01*
X143000Y108250D01*
X143200Y107950D01*
X143333Y107600D01*
X143400Y107200D01*
Y106800D01*
X143333Y106400D01*
X143200Y106050D01*
X143000Y105750D01*
X142767Y105550D01*
X142500Y105500D01*
G01X142767Y106300D02*
X143167Y105500D01*
G01X145500D02*
Y108500D01*
X144267Y106350D01*
X145933D01*
G01X144500Y92500D02*
X150000D01*
Y100500D01*
X148500D01*
G01X134000Y101000D02*
X132000D01*
Y92500D01*
X138000D01*
G01X134833Y129500D02*
Y132500D01*
X135667D01*
X135933Y132350D01*
X136100Y132150D01*
X136167Y131750D01*
X136100Y131350D01*
X135900Y131100D01*
X135667Y130950D01*
X134833D01*
G01X135667D02*
X136167Y129500D01*
G01X137467Y132000D02*
X137667Y132300D01*
X137900Y132450D01*
X138167Y132500D01*
X138500Y132400D01*
X138733Y132150D01*
X138800Y131850D01*
X138767Y131550D01*
X138633Y131300D01*
X137967Y130800D01*
X137667Y130450D01*
X137467Y129950D01*
X137400Y129500D01*
X138800D01*
G01X140700Y132500D02*
X140433Y132400D01*
X140233Y132150D01*
X140100Y131850D01*
X140000Y131450D01*
X139967Y131000D01*
X140000Y130550D01*
X140100Y130150D01*
X140233Y129850D01*
X140433Y129600D01*
X140700Y129500D01*
X140967Y129600D01*
X141167Y129850D01*
X141300Y130150D01*
X141400Y130550D01*
X141433Y131000D01*
X141400Y131450D01*
X141300Y131850D01*
X141167Y132150D01*
X140967Y132400D01*
X140700Y132500D01*
G54D12*
G01X40000Y21378D02*
X48858D01*
G01X44528Y16850D02*
Y25906D01*
G01X38622Y21378D02*
G03X44528Y15472I5906J0D01*
G03X50433Y21575I-1J5909D01*
G03X44528Y27283I-5899J-194D01*
G03X38622Y21378I-1J-5905D01*
G01X50039Y11535D02*
X54370D01*
Y31220D01*
X53189D01*
G01X39016Y11535D02*
X34685D01*
Y31220D01*
X35866D01*
G01X43543D02*
X45512D01*
G01X84606Y74232D02*
G03I-393J0D01*
G01X107047Y98248D02*
Y123839D01*
X81063D01*
Y98248D01*
M02*
