G04 ================== begin FILE IDENTIFICATION RECORD ==================*
G04 Layout Name:  LAYOUT.brd*
G04 Film Name:    TOP*
G04 File Format:  Gerber RS274X*
G04 File Origin:  Cadence Allegro 16.6-2015-S059*
G04 Origin Date:  Wed Dec 07 19:30:45 2022*
G04 *
G04 Layer:  ETCH/TOP*
G04 Layer:  PIN/TOP*
G04 Layer:  VIA CLASS/TOP*
G04 *
G04 Offset:    (0.00 0.00)*
G04 Mirror:    No*
G04 Mode:      Positive*
G04 Rotation:  0*
G04 FullContactRelief:  No*
G04 UndefLineWidth:     0.00*
G04 ================== end FILE IDENTIFICATION RECORD ====================*
%FSLAX25Y25*MOIN*%
%IR0*IPPOS*OFA0.00000B0.00000*MIA0B0*SFA1.00000B1.00000*%
%ADD15C,.03*%
%ADD10C,.04*%
%ADD11C,.06*%
%ADD12R,.05X.05*%
%ADD16R,.05118X.05118*%
%ADD20R,.06299X.11811*%
%ADD19R,.036X.05*%
%ADD13R,.08X.06*%
%ADD18R,.05X.036*%
%ADD14R,.076X.048*%
%ADD21R,.22835X.24409*%
%ADD17R,.07874X.05118*%
%ADD22C,.018*%
%ADD24R,.10404X.08404*%
%ADD26C,.07878*%
%ADD25R,.07404X.06004*%
%ADD23R,.07404X.07404*%
G75*
%LPD*%
G75*
G36*
G01X150000Y5000D02*
X129637D01*
G02X129355Y5683I1J400D01*
G01X132102Y8430D01*
Y23370D01*
X130102Y25370D01*
Y26998D01*
X131702D01*
Y33002D01*
X124298D01*
Y26998D01*
X125898D01*
Y23630D01*
X127898Y21630D01*
Y10170D01*
X127330Y9602D01*
X78702D01*
Y10398D01*
X96570D01*
X99602Y13430D01*
Y13798D01*
X101202D01*
Y20398D01*
X102198D01*
Y13798D01*
X109602D01*
Y15398D01*
X111298D01*
Y13798D01*
X118702D01*
Y21202D01*
X111298D01*
Y19602D01*
X109602D01*
Y21202D01*
X107639D01*
G02X107356Y21884I0J400D01*
G01X110102Y24630D01*
Y29498D01*
X111702D01*
Y35502D01*
X104298D01*
Y29498D01*
X105898D01*
Y26370D01*
X104130Y24602D01*
X98430D01*
X95398Y21570D01*
Y21202D01*
X93798D01*
Y14602D01*
X78702D01*
Y16202D01*
X71298D01*
Y9602D01*
X70302D01*
Y16202D01*
X68702D01*
Y30870D01*
X68256Y31316D01*
G02X68539Y31998I283J282D01*
G01X69202D01*
Y38002D01*
X61798D01*
Y31998D01*
X63398D01*
Y30230D01*
X64498Y29130D01*
Y22102D01*
X61698D01*
G03X58302I-1698J-2102D01*
G01X38370D01*
X28370Y32102D01*
X13638D01*
G03Y27898I-3638J-2102D01*
G01X26630D01*
X36630Y17898D01*
X58302D01*
G03X61698I1698J2102D01*
G01X64498D01*
Y16202D01*
X62898D01*
Y9602D01*
X54191D01*
X51435Y12358D01*
X49666D01*
Y14016D01*
X39390D01*
Y6496D01*
X49666D01*
Y7217D01*
G02X50349Y7500I400J0D01*
G01X52166Y5683D01*
G02X51884Y5000I-283J-283D01*
G01X7500D01*
X5000Y7500D01*
Y150000D01*
X7500Y152500D01*
X150000D01*
X152500Y150000D01*
Y71637D01*
G02X151817Y71355I-400J1D01*
G01X149070Y74102D01*
X145702D01*
Y75702D01*
X139698D01*
Y68298D01*
X145702D01*
Y69898D01*
X147330D01*
X147898Y69330D01*
Y64202D01*
X146970D01*
X144070Y67102D01*
X137102D01*
Y68298D01*
X138002D01*
Y75702D01*
X131998D01*
Y68739D01*
G02X131316Y68456I-400J0D01*
G01X128702Y71070D01*
Y78702D01*
X121298D01*
Y71298D01*
X122898D01*
Y70930D01*
X130930Y62898D01*
X134298D01*
Y56798D01*
X135198D01*
Y44130D01*
X136998Y42330D01*
Y18702D01*
X135398D01*
Y11298D01*
X142802D01*
Y18702D01*
X141202D01*
Y26298D01*
X148702D01*
Y33702D01*
X141202D01*
Y34698D01*
X148702D01*
Y37530D01*
X151817Y40645D01*
G02X152500Y40363I283J-283D01*
G01Y7500D01*
X150000Y5000D01*
G37*
%LPC*%
G75*
G36*
G01X86570Y20398D02*
X73430D01*
X70398Y23430D01*
Y45370D01*
X80644Y55616D01*
G03X80361Y56298I-283J282D01*
G01X79698D01*
Y63702D01*
X87102D01*
Y63039D01*
G03X87784Y62756I400J0D01*
G01X87898Y62870D01*
Y65870D01*
X94130Y72102D01*
X112898D01*
Y78702D01*
X114498D01*
Y82530D01*
X107898Y89130D01*
Y104830D01*
X107330Y105398D01*
X106595D01*
Y97401D01*
X81357D01*
Y124213D01*
X91849D01*
G03X92132Y124896I0J400D01*
G01X89130Y127898D01*
X62102D01*
Y121802D01*
X63702D01*
Y115798D01*
X62102D01*
Y109338D01*
G03X62824Y109101I400J0D01*
G02X65434Y110167I2177J-1601D01*
G03X65898Y110562I64J395D01*
G01Y111998D01*
X64298D01*
Y118002D01*
X71702D01*
Y111998D01*
X70102D01*
Y108430D01*
X67070Y105398D01*
X66700D01*
X66646Y105357D01*
G02X62824Y105899I-1646J2143D01*
G03X62102Y105662I-322J-237D01*
G01Y104570D01*
X63702Y102970D01*
Y101202D01*
X65302D01*
Y93798D01*
X57898D01*
Y101202D01*
X58561D01*
G03X58844Y101884I0J400D01*
G01X57898Y102830D01*
Y115798D01*
X56298D01*
Y121802D01*
X57898D01*
Y132330D01*
X57330Y132898D01*
X35170D01*
X34602Y132330D01*
Y129002D01*
X37502D01*
Y121798D01*
X27498D01*
Y122844D01*
G03X27157Y122985I-200J0D01*
G01X27070Y122898D01*
X22702D01*
Y120798D01*
X12298D01*
Y129202D01*
X22702D01*
Y127102D01*
X25330D01*
X25730Y127502D01*
X27498D01*
Y129002D01*
X30398D01*
Y134070D01*
X33430Y137102D01*
X59070D01*
X62102Y134070D01*
Y132102D01*
X79998D01*
Y138602D01*
X90002D01*
Y137102D01*
X95398D01*
Y138702D01*
X102802D01*
Y131298D01*
X95398D01*
Y132898D01*
X90002D01*
Y132102D01*
X90870D01*
X96990Y125982D01*
Y124213D01*
X106595D01*
Y122102D01*
X111298D01*
Y123702D01*
X112898D01*
Y124070D01*
X115930Y127102D01*
X131298D01*
Y128702D01*
X138702D01*
Y121298D01*
X131298D01*
Y122898D01*
X127102D01*
Y116298D01*
X125502D01*
Y112530D01*
X119602Y106630D01*
Y101802D01*
X121202D01*
Y95798D01*
X119602D01*
Y88370D01*
X120284Y87688D01*
X120351Y87679D01*
G02X119217Y82414I-351J-2679D01*
G03X118702Y82031I-115J-383D01*
G01Y78702D01*
X120302D01*
Y71298D01*
X118702D01*
Y70730D01*
X115870Y67898D01*
X95870D01*
X94856Y66884D01*
G03X95139Y66202I283J-282D01*
G01X100302D01*
Y58798D01*
X98702D01*
Y48798D01*
X91298D01*
Y50398D01*
X88371D01*
X85902Y47929D01*
Y46202D01*
X86802D01*
Y38798D01*
X80798D01*
Y46202D01*
X81698D01*
Y49669D01*
X86631Y54602D01*
X91298D01*
Y56202D01*
X93230D01*
X94498Y57470D01*
Y58798D01*
X92898D01*
Y63961D01*
G03X92216Y64244I-400J0D01*
G01X92102Y64130D01*
Y61130D01*
X88870Y57898D01*
X87102D01*
Y56298D01*
X85502D01*
Y54530D01*
X74602Y43630D01*
Y25170D01*
X75170Y24602D01*
X78162D01*
G03X78399Y25324I0J400D01*
G02X77898Y29198I1601J2176D01*
G01Y30798D01*
X76998D01*
Y38202D01*
X83002D01*
Y30798D01*
X82102D01*
Y29198D01*
G02X81601Y25324I-2102J-1698D01*
G03X81838Y24602I237J-322D01*
G01X84830D01*
X85598Y25370D01*
Y30798D01*
X84698D01*
Y38202D01*
X90702D01*
Y30798D01*
X89802D01*
Y23630D01*
X86570Y20398D01*
G37*
G36*
G01X61202Y35798D02*
X53798D01*
Y41802D01*
X55398D01*
Y55870D01*
X67312Y67784D01*
X67321Y67851D01*
G02X69006Y70013I2679J-351D01*
G01X69132Y70063D01*
Y70398D01*
X68370D01*
X58370Y60398D01*
X54602D01*
Y58798D01*
X47198D01*
Y66202D01*
X48798D01*
Y84270D01*
X50844Y86316D01*
G03X50561Y86998I-283J282D01*
G01X44298D01*
Y87898D01*
X42670D01*
X37670Y82898D01*
X29602D01*
Y81298D01*
X28002D01*
Y76202D01*
X29602D01*
Y68798D01*
X28002D01*
Y63702D01*
X29602D01*
Y56298D01*
X22198D01*
Y63702D01*
X23798D01*
Y68798D01*
X22198D01*
Y76202D01*
X23798D01*
Y81298D01*
X22198D01*
Y88702D01*
X22861D01*
G03X23144Y89384I0J400D01*
G01X21756Y90772D01*
X18756D01*
X15398Y94130D01*
Y96298D01*
X13798D01*
Y103702D01*
X21202D01*
Y96298D01*
X19602D01*
Y95870D01*
X20496Y94976D01*
X23496D01*
X28002Y90470D01*
Y88702D01*
X29602D01*
Y87102D01*
X35930D01*
X38944Y90116D01*
G03X38661Y90798I-283J282D01*
G01X36298D01*
Y91698D01*
X32830D01*
X32216Y92312D01*
X32149Y92321D01*
G02X35047Y95902I351J2679D01*
G01X36298D01*
Y96802D01*
X43702D01*
Y92102D01*
X44298D01*
Y93002D01*
X51702D01*
Y88139D01*
G03X52384Y87856I400J0D01*
G01X52898Y88370D01*
Y104830D01*
X52330Y105398D01*
X39198D01*
G02X35802I-1698J2102D01*
G01X28570D01*
X28002Y104830D01*
Y103702D01*
X29602D01*
Y96298D01*
X22198D01*
Y103702D01*
X23798D01*
Y106570D01*
X26830Y109602D01*
X35802D01*
G02X39198I1698J-2102D01*
G01X54070D01*
X57102Y106570D01*
Y86630D01*
X53002Y82530D01*
Y81939D01*
G03X53684Y81656I400J0D01*
G01X55430Y83402D01*
X58798D01*
Y84302D01*
X60398D01*
Y89070D01*
X63430Y92102D01*
X67330D01*
X67898Y92670D01*
Y93798D01*
X66298D01*
Y101202D01*
X73702D01*
Y93798D01*
X72102D01*
Y90930D01*
X70056Y88884D01*
G03X70339Y88202I283J-282D01*
G01X74202D01*
Y82198D01*
X66798D01*
Y87898D01*
X65170D01*
X64602Y87330D01*
Y84302D01*
X66202D01*
Y78298D01*
X58798D01*
Y79198D01*
X57170D01*
X57102Y79130D01*
Y74198D01*
G02X53608Y70184I-2102J-1698D01*
G03X53002Y69842I-206J-342D01*
G01Y66202D01*
X54602D01*
Y64602D01*
X56630D01*
X66630Y74602D01*
X66798D01*
Y80502D01*
X74202D01*
Y74602D01*
X86630D01*
X86738Y74710D01*
G03X86455Y75393I-283J283D01*
G01X80649D01*
Y80398D01*
X78430D01*
X75398Y83430D01*
Y119130D01*
X73930Y120598D01*
X71702D01*
Y119698D01*
X64298D01*
Y125702D01*
X71702D01*
Y124802D01*
X75670D01*
X79602Y120870D01*
Y85170D01*
X80170Y84602D01*
X80649D01*
Y89607D01*
X89351D01*
Y78289D01*
G03X90034Y78006I400J0D01*
G01X96630Y84602D01*
X98641D01*
Y89607D01*
X107343D01*
Y75393D01*
X98641D01*
Y79703D01*
G03X97958Y79986I-400J0D01*
G01X88370Y70398D01*
X71838D01*
G03X71601Y69676I0J-400D01*
G02X70351Y64821I-1601J-2176D01*
G01X70284Y64812D01*
X59602Y54130D01*
Y41802D01*
X61202D01*
Y35798D01*
G37*
G36*
G01X141802Y76298D02*
X135798D01*
Y80730D01*
X132898Y83630D01*
Y94470D01*
X134544Y96116D01*
G03X134298Y96797I-283J283D01*
G01Y98398D01*
X131430D01*
X129884Y99944D01*
G03X129203Y99698I-283J-283D01*
G01X121798D01*
Y105702D01*
X129202D01*
Y104802D01*
X130970D01*
X133170Y102602D01*
X134298D01*
Y104202D01*
X140302D01*
Y96798D01*
X139402D01*
Y96202D01*
X144202D01*
Y94602D01*
X147470D01*
X150602Y91470D01*
Y88698D01*
G02X146357Y88646I-2102J-1698D01*
G01X146398Y88700D01*
Y89730D01*
X145730Y90398D01*
X144202D01*
Y88798D01*
X139098D01*
Y85430D01*
X139812Y84716D01*
X139821Y84649D01*
G03X139914Y84217I2679J351D01*
G02X139931Y84102I-383J-115D01*
G03X140331Y83702I400J0D01*
G01X141802D01*
Y76298D01*
G37*
G36*
G01X43760Y36260D02*
Y28740D01*
X36240D01*
Y36260D01*
X37898D01*
Y37330D01*
X37330Y37898D01*
X32102D01*
Y36298D01*
X24698D01*
Y43702D01*
X32102D01*
Y42102D01*
X39070D01*
X42102Y39070D01*
Y36260D01*
X43760D01*
G37*
G36*
G01X52816D02*
Y28740D01*
X45294D01*
Y36260D01*
X46954D01*
Y45075D01*
X40398Y51630D01*
Y58798D01*
X38798D01*
Y66202D01*
X46202D01*
Y58798D01*
X44602D01*
Y53370D01*
X51156Y46815D01*
Y36260D01*
X52816D01*
G37*
G36*
G01X125502Y52530D02*
X120188Y47216D01*
X120179Y47149D01*
G02X119643Y45854I-2679J350D01*
G01X119602Y45800D01*
Y44770D01*
X122102Y42270D01*
Y36802D01*
X123702D01*
Y30798D01*
X116298D01*
Y36802D01*
X117898D01*
Y40530D01*
X115398Y43030D01*
Y45802D01*
G02X117149Y50179I2102J1698D01*
G01X117216Y50188D01*
X121298Y54270D01*
Y56298D01*
X119698D01*
Y63702D01*
X127102D01*
Y56298D01*
X125502D01*
Y52530D01*
G37*
G36*
G01X97688Y45284D02*
X98270Y44702D01*
X101298D01*
Y48798D01*
X99698D01*
Y56202D01*
X107102D01*
Y48798D01*
X105502D01*
Y43202D01*
X111702D01*
Y37198D01*
X104298D01*
Y40561D01*
G03X103616Y40844I-400J0D01*
G01X102756Y39984D01*
G03X103039Y39302I283J-282D01*
G01X103702D01*
Y33298D01*
X96298D01*
Y39302D01*
X97898D01*
Y40498D01*
X96530D01*
X94716Y42312D01*
X94649Y42321D01*
G02X97679Y45351I351J2679D01*
G01X97688Y45284D01*
G37*
G36*
G01X130756Y41384D02*
G03X131039Y40702I283J-282D01*
G01X131702D01*
Y34698D01*
X124298D01*
Y40702D01*
X125898D01*
Y42470D01*
X127898Y44470D01*
Y45802D01*
G02X132102I2102J1698D01*
G01Y42730D01*
X130756Y41384D01*
G37*
G36*
G01X71664Y54636D02*
X72898Y55870D01*
Y56298D01*
X71298D01*
Y63702D01*
X78702D01*
Y56298D01*
X77102D01*
Y54130D01*
X73370Y50398D01*
X71698D01*
G02X70351Y49821I-1698J2102D01*
G01X70284Y49812D01*
X67602Y47130D01*
Y45702D01*
X69202D01*
Y39698D01*
X61798D01*
Y45702D01*
X63398D01*
Y48870D01*
X67312Y52784D01*
X67321Y52851D01*
G02X71527Y54729I2679J-351D01*
G01X71664Y54636D01*
G37*
G36*
G01X126062Y86466D02*
X123398Y89130D01*
Y91998D01*
X121798D01*
Y98002D01*
X129202D01*
Y91998D01*
X127602D01*
Y90870D01*
X129034Y89438D01*
X129101Y89429D01*
G02X126071Y86399I-351J-2679D01*
G01X126062Y86466D01*
G37*
G36*
G01X148002Y104202D02*
Y96798D01*
X141998D01*
Y104202D01*
X142898D01*
Y105398D01*
X136698D01*
G02Y109602I-1698J2102D01*
G01X142898D01*
Y110370D01*
X143144Y110616D01*
G03X142861Y111298I-283J282D01*
G01X142198D01*
Y118702D01*
X149602D01*
Y111298D01*
X148002D01*
Y109530D01*
X147102Y108630D01*
Y104202D01*
X148002D01*
G37*
G36*
G01X53702Y120302D02*
Y112898D01*
X46298D01*
Y114498D01*
X44530D01*
X43630Y115398D01*
X37502D01*
Y113898D01*
X27498D01*
Y121102D01*
X37502D01*
Y119602D01*
X45370D01*
X45616Y119356D01*
G03X46298Y119639I282J283D01*
G01Y120302D01*
X53702D01*
G37*
G36*
G01X147102Y128702D02*
Y121298D01*
X139698D01*
Y128702D01*
X141298D01*
Y130470D01*
X142898Y132070D01*
Y133302D01*
G02X147102I2102J1698D01*
G01Y130330D01*
X146156Y129384D01*
G03X146439Y128702I283J-282D01*
G01X147102D01*
G37*
G36*
G01X125202Y146702D02*
Y138298D01*
X114798D01*
Y140398D01*
X106698D01*
G02X102901Y140798I-1698J2102D01*
G01X90002D01*
Y139298D01*
X79998D01*
Y146502D01*
X90002D01*
Y145002D01*
X103979D01*
G02X106698Y144602I1021J-2502D01*
G01X114798D01*
Y146702D01*
X125202D01*
G37*
G54D24*
X120000Y132500D03*
X17500Y115000D03*
G54D26*
X137500Y137500D03*
X20000Y20000D03*
G54D25*
X48000Y97700D03*
G54D23*
X137500Y115000D03*
X147500Y15000D03*
X107500Y135000D03*
X115000Y60000D03*
X105000Y62500D03*
X123400Y17500D03*
X50000Y125000D03*
X17500Y72500D03*
Y85000D03*
X20000Y40000D03*
X17500Y60000D03*
%LPD*%
G75*
G54D10*
X20000Y20000D03*
X137500Y137500D03*
G54D20*
X85000Y82500D03*
X102992D03*
G54D11*
X10000Y30000D03*
G54D21*
X93976Y110807D03*
G54D12*
X17500Y60000D03*
X25900D03*
X20000Y40000D03*
X28400D03*
X17500Y85000D03*
X25900D03*
X17500Y72500D03*
X25900D03*
X17500Y100000D03*
X25900D03*
X42500Y62500D03*
X50900D03*
X50000Y116600D03*
X61600Y97500D03*
X50000Y125000D03*
X75000Y12500D03*
X66600D03*
X75000Y60000D03*
X83400D03*
X70000Y97500D03*
X97500Y17500D03*
X105900D03*
X115000D03*
X123400D03*
X95000Y52500D03*
X103400D03*
X105000Y62500D03*
X96600D03*
X115000Y60000D03*
X123400D03*
X116600Y75000D03*
X115000Y120000D03*
X123400D03*
X107500Y135000D03*
X99100D03*
X145000Y30000D03*
X147500Y15000D03*
X139100D03*
X145000Y38400D03*
X125000Y75000D03*
X137500Y115000D03*
X145900D03*
X135000Y125000D03*
X143400D03*
G54D22*
G01X60000Y20000D02*
X37500D01*
X27500Y30000D01*
X10000D01*
G01X20000Y36098D02*
Y40000D01*
G01D02*
Y43902D01*
G01X16098Y40000D02*
X20000D01*
G01D02*
X23902D01*
G01X17500Y56098D02*
Y60000D01*
G01D02*
Y63902D01*
G01X13598Y60000D02*
X17500D01*
G01D02*
X21402D01*
G01X25900D02*
Y72500D01*
G01X40000Y32500D02*
Y38200D01*
X38200Y40000D01*
X28400D01*
G01X17500Y68598D02*
Y72500D01*
G01D02*
Y76402D01*
G01X13598Y72500D02*
X17500D01*
G01D02*
X21402D01*
G01X17500Y81098D02*
Y85000D01*
G01D02*
Y88902D01*
G01X13598Y85000D02*
X17500D01*
G01D02*
X21402D01*
G01X25900D02*
X36800D01*
X41800Y90000D01*
X48000D01*
G01X25900Y85000D02*
Y72500D01*
G01Y85000D02*
Y89600D01*
X22626Y92874D01*
X19626D01*
X17500Y95000D01*
Y100000D01*
G01Y110598D02*
Y115000D01*
G01D02*
Y119402D01*
G01X12098Y115000D02*
X17500D01*
G01D02*
X22902D01*
G01X37500Y107500D02*
X27700D01*
X25900Y105700D01*
Y100000D01*
G01X17500Y125000D02*
X26200D01*
X26600Y125400D01*
X32500D01*
G01X128000Y30000D02*
Y24500D01*
X130000Y22500D01*
Y9300D01*
X128200Y7500D01*
X53321D01*
X50565Y10256D01*
X44528D01*
G01X60000Y20000D02*
X66600D01*
G01X70000Y67500D02*
X57500Y55000D01*
Y38800D01*
G01X42500Y62500D02*
Y52500D01*
X49055Y45945D01*
Y32500D01*
G01X50900Y62500D02*
X57500D01*
X67500Y72500D01*
X87500D01*
X97500Y82500D01*
X102992D01*
G01X50900Y62500D02*
Y83400D01*
X55000Y87500D01*
Y105700D01*
X53200Y107500D01*
X37500D01*
G01X55000Y72500D02*
Y80000D01*
X56300Y81300D01*
X62500D01*
G01X48000Y94498D02*
Y97700D01*
G01D02*
Y100902D01*
G01X44098Y97700D02*
X48000D01*
G01D02*
X51902D01*
G01X40000Y93800D02*
X33700D01*
X32500Y95000D01*
G01X60000Y118800D02*
Y130000D01*
G01Y118800D02*
Y103700D01*
X61600Y102100D01*
Y97500D01*
G01X32500Y117500D02*
X44500D01*
X45400Y116600D01*
X50000D01*
G01Y121098D02*
Y125000D01*
G01D02*
Y128902D01*
G01X46098Y125000D02*
X50000D01*
G01D02*
X53902D01*
G01X60000Y130000D02*
X90000D01*
X94888Y125112D01*
Y111719D01*
G01X60000Y130000D02*
Y133200D01*
X58200Y135000D01*
X34300D01*
X32500Y133200D01*
Y125400D01*
G01X87700Y34500D02*
Y24500D01*
X85700Y22500D01*
X74300D01*
X72500Y24300D01*
Y44500D01*
X83400Y55400D01*
Y60000D01*
G01X80000Y27500D02*
Y34500D01*
G01X97500Y17500D02*
Y14300D01*
X95700Y12500D01*
X75000D01*
G01X66600D02*
Y20000D01*
G01D02*
Y30000D01*
X65500Y31100D01*
Y35000D01*
G01X116600Y75000D02*
Y71600D01*
X115000Y70000D01*
X95000D01*
X90000Y65000D01*
Y62000D01*
X88000Y60000D01*
X83400D01*
G01X95000Y52500D02*
X87501D01*
X83800Y48799D01*
Y42500D01*
G01X65500Y42700D02*
Y48000D01*
X70000Y52500D01*
G01D02*
X72500D01*
X75000Y55000D01*
Y60000D01*
G01X70500Y77500D02*
Y80702D01*
G01X66598Y77500D02*
X70500D01*
G01D02*
X74402D01*
G01X85000Y82500D02*
X79300D01*
X77500Y84300D01*
Y120000D01*
X74800Y122700D01*
X68000D01*
G01X70000Y97500D02*
Y91800D01*
X68200Y90000D01*
X64300D01*
X62500Y88200D01*
Y81300D01*
G01X65000Y107500D02*
X66200D01*
X68000Y109300D01*
Y115000D01*
G01X99100Y135000D02*
X85000D01*
G01Y142900D02*
X104600D01*
X105000Y142500D01*
G01X119498Y17500D02*
X123400D01*
G01X108000Y32500D02*
Y25500D01*
X105000Y22500D01*
X99300D01*
X97500Y20700D01*
Y17500D01*
G01X115000D02*
X105900D01*
G01X108000Y36998D02*
Y40200D01*
G01D02*
Y43402D01*
G01X104098Y40200D02*
X108000D01*
G01D02*
X111902D01*
G01X115000Y56098D02*
Y60000D01*
G01D02*
Y63902D01*
G01X111098Y60000D02*
X115000D01*
G01D02*
X118902D01*
G01X105000Y58598D02*
Y62500D01*
G01X103400Y52500D02*
Y43600D01*
X102400Y42600D01*
G01D02*
X100000Y40200D01*
Y36300D01*
G01X102400Y42600D02*
X97400D01*
X95000Y45000D01*
G01X117500Y47500D02*
X123400Y53400D01*
Y60000D01*
G01X120000Y33800D02*
Y41400D01*
X117500Y43900D01*
Y47500D01*
G01X96600Y62500D02*
Y56600D01*
X95000Y55000D01*
Y52500D01*
G01X105000Y62500D02*
Y66402D01*
G01X101098Y62500D02*
X105000D01*
G01D02*
X108902D01*
G01X116600Y75000D02*
Y83400D01*
X110000Y90000D01*
Y105700D01*
X108200Y107500D01*
X97283D01*
X93976Y110807D01*
G01X117500Y98800D02*
Y87500D01*
X120000Y85000D01*
G01X94888Y111719D02*
X93976Y110807D01*
G01X115000Y120000D02*
X103169D01*
X94888Y111719D01*
G01X115000Y120000D02*
Y123200D01*
X116800Y125000D01*
X135000D01*
G01X123400Y120000D02*
Y113400D01*
X117500Y107500D01*
Y98800D01*
G01X107500Y131098D02*
Y135000D01*
G01D02*
Y138902D01*
G01X103598Y135000D02*
X107500D01*
G01D02*
X111402D01*
G01X120000Y128098D02*
Y132500D01*
G01D02*
Y136902D01*
G01X114598Y132500D02*
X120000D01*
G01D02*
X125402D01*
G01X105000Y142500D02*
X120000D01*
G01X147500Y11098D02*
Y15000D01*
G01D02*
Y18902D01*
G01X143598Y15000D02*
X147500D01*
G01D02*
X151402D01*
G01X145000Y26098D02*
Y30000D01*
G01D02*
Y33902D01*
G01Y30000D02*
X148902D01*
G01X123400Y13598D02*
Y17500D01*
G01D02*
Y21402D01*
G01Y17500D02*
X127302D01*
G01X139100Y15000D02*
Y43200D01*
X137300Y45000D01*
Y60500D01*
G01X145000Y38400D02*
X146600D01*
X150000Y41800D01*
Y70200D01*
X148200Y72000D01*
X142700D01*
G01X145000Y60500D02*
Y63200D01*
X143200Y65000D01*
X135000D01*
G01X141200Y52500D02*
X143200D01*
X145000Y54300D01*
Y60500D01*
G01X130000Y47500D02*
Y43600D01*
X128000Y41600D01*
Y37700D01*
G01X137300Y100500D02*
Y95900D01*
X135000Y93600D01*
Y84500D01*
X138800Y80700D01*
Y80000D01*
G01X125500Y95000D02*
Y90000D01*
X128750Y86750D01*
G01X135000Y65000D02*
Y72000D01*
G01Y65000D02*
X131800D01*
X125000Y71800D01*
Y75000D01*
G01X141200Y92500D02*
X146600D01*
X148500Y90600D01*
Y87000D01*
G01X137500Y111098D02*
Y115000D01*
G01D02*
Y118902D01*
G01X133598Y115000D02*
X137500D01*
G01D02*
X141402D01*
G01X145900D02*
Y110400D01*
X145000Y109500D01*
Y107500D01*
G01D02*
Y100500D01*
G01X135000Y107500D02*
X145000D01*
G01X137300Y100500D02*
X132300D01*
X130100Y102700D01*
X125500D01*
G01X145000Y135000D02*
Y131200D01*
X143400Y129600D01*
Y125000D01*
G54D13*
X17500Y115000D03*
Y125000D03*
X120000Y132500D03*
Y142500D03*
G54D14*
X32500Y117500D03*
Y125400D03*
X85000Y135000D03*
Y142900D03*
G54D15*
X32500Y95000D03*
X60000Y20000D03*
X55000Y72500D03*
X37500Y107500D03*
X80000Y27500D03*
X70000Y52500D03*
Y67500D03*
X65000Y107500D03*
X95000Y45000D03*
X117500Y47500D03*
X120000Y85000D03*
X105000Y142500D03*
X130000Y47500D03*
X128750Y86750D03*
X148500Y87000D03*
X135000Y107500D03*
X145000Y135000D03*
G54D16*
X49055Y32500D03*
X40000D03*
G54D17*
X44528Y10256D03*
G54D18*
X57500Y38800D03*
X48000Y90000D03*
X62500Y81300D03*
X60000Y118800D03*
X48000Y97700D03*
X40000Y93800D03*
X65500Y35000D03*
Y42700D03*
X70500Y77500D03*
Y85200D03*
X68000Y115000D03*
Y122700D03*
X108000Y32500D03*
Y40200D03*
X100000Y36300D03*
X120000Y33800D03*
X117500Y98800D03*
X128000Y30000D03*
Y37700D03*
X125500Y95000D03*
Y102700D03*
G54D19*
X80000Y34500D03*
X87700D03*
X83800Y42500D03*
X145000Y60500D03*
X137300D03*
X141200Y52500D03*
Y92500D03*
X135000Y72000D03*
X142700D03*
X138800Y80000D03*
X145000Y100500D03*
X137300D03*
M02*
